<mxfile type="github" version="12.1.1" host="www.draw.io" modified="2019-10-15T21:20:19.960Z" agent="Mozilla/5.0 (Windows NT 10.0; Win64; x64) AppleWebKit/537.36 (KHTML, like Gecko) Chrome/64.0.3282.140 Safari/537.36 Edge/17.17134" etag="iwsQ9G_qhrmgnE9nInxX" pages="1">
  <diagram id="6a731a19-8d31-9384-78a2-239565b7b9f0" name="Page-1">
    <mxGraphModel grid="1" shadow="0" math="0" background="#ffffff" pageHeight="827" pageWidth="1169" pageScale="1" page="1" fold="1" arrows="1" connect="1" tooltips="1" guides="1" gridSize="10" dy="770" dx="1423">
      <root>
        <mxCell id="0"/>
        <mxCell id="1" parent="0"/>
        <mxCell id="T4d4wd5CuioazKSg51IY-1782" parent="1" source="T4d4wd5CuioazKSg51IY-1779" target="T4d4wd5CuioazKSg51IY-1781" edge="1" style="edgeStyle=orthogonalEdgeStyle;rounded=0;orthogonalLoop=1;jettySize=auto;html=1;">
          <mxGeometry as="geometry" relative="1">
            <Array as="points">
              <mxPoint y="200" x="176"/>
              <mxPoint y="200" x="180"/>
            </Array>
          </mxGeometry>
        </mxCell>
        <mxCell id="T4d4wd5CuioazKSg51IY-1793" parent="1" source="T4d4wd5CuioazKSg51IY-1779" target="T4d4wd5CuioazKSg51IY-1792" edge="1" style="edgeStyle=orthogonalEdgeStyle;rounded=0;orthogonalLoop=1;jettySize=auto;html=1;fontSize=15;entryX=0.5;entryY=0;entryDx=0;entryDy=0;">
          <mxGeometry as="geometry" relative="1">
            <mxPoint as="targetPoint" y="300" x="200"/>
          </mxGeometry>
        </mxCell>
        <mxCell id="T4d4wd5CuioazKSg51IY-1779" value="&lt;font style=&quot;font-size: 22px&quot;&gt;&lt;b&gt;Nombre Del Proyecto&amp;nbsp;&lt;/b&gt;&lt;/font&gt;" parent="1" style="rounded=1;whiteSpace=wrap;html=1;fillColor=#BECADB;strokeColor=#6c8ebf;" vertex="1">
          <mxGeometry as="geometry" y="10" x="70" height="130" width="310"/>
        </mxCell>
        <mxCell id="T4d4wd5CuioazKSg51IY-1788" parent="1" source="T4d4wd5CuioazKSg51IY-1781" target="T4d4wd5CuioazKSg51IY-1784" edge="1" style="edgeStyle=orthogonalEdgeStyle;rounded=0;orthogonalLoop=1;jettySize=auto;html=1;entryX=0;entryY=0.5;entryDx=0;entryDy=0;fontSize=15;">
          <mxGeometry as="geometry" relative="1"/>
        </mxCell>
        <mxCell id="T4d4wd5CuioazKSg51IY-1781" value="PROJECT/PROGRAM LAUNCH AND MANAGEMENT" parent="1" style="rounded=1;whiteSpace=wrap;html=1;fontSize=15;fillColor=#dae8fc;strokeColor=#6c8ebf;fontStyle=1" vertex="1">
          <mxGeometry as="geometry" y="190" x="80" height="90" width="310"/>
        </mxCell>
        <mxCell id="T4d4wd5CuioazKSg51IY-1804" parent="1" source="T4d4wd5CuioazKSg51IY-1784" target="T4d4wd5CuioazKSg51IY-1785" edge="1" style="edgeStyle=orthogonalEdgeStyle;rounded=0;orthogonalLoop=1;jettySize=auto;html=1;entryX=0;entryY=0.5;entryDx=0;entryDy=0;fontSize=15;">
          <mxGeometry as="geometry" relative="1"/>
        </mxCell>
        <mxCell id="T4d4wd5CuioazKSg51IY-1784" value="PROJECT DEFINITION" parent="1" style="rounded=1;whiteSpace=wrap;html=1;fontSize=15;fillColor=#dae8fc;strokeColor=#6c8ebf;" vertex="1">
          <mxGeometry as="geometry" y="10" x="480" height="60" width="130"/>
        </mxCell>
        <mxCell id="T4d4wd5CuioazKSg51IY-1805" parent="1" source="T4d4wd5CuioazKSg51IY-1785" edge="1" style="edgeStyle=orthogonalEdgeStyle;rounded=0;orthogonalLoop=1;jettySize=auto;html=1;fontSize=15;">
          <mxGeometry as="geometry" relative="1">
            <mxPoint as="targetPoint" y="110" x="750.0000000000002"/>
          </mxGeometry>
        </mxCell>
        <mxCell id="T4d4wd5CuioazKSg51IY-1785" value="PROJECT PLANNING &amp;amp; MANAGEMENT" parent="1" style="rounded=1;whiteSpace=wrap;html=1;fontSize=15;fillColor=#dae8fc;strokeColor=#6c8ebf;" vertex="1">
          <mxGeometry as="geometry" y="10" x="680" height="60" width="140"/>
        </mxCell>
        <mxCell id="T4d4wd5CuioazKSg51IY-1806" parent="1" source="T4d4wd5CuioazKSg51IY-1786" target="T4d4wd5CuioazKSg51IY-1787" edge="1" style="edgeStyle=orthogonalEdgeStyle;rounded=0;orthogonalLoop=1;jettySize=auto;html=1;fontSize=15;">
          <mxGeometry as="geometry" relative="1"/>
        </mxCell>
        <mxCell id="T4d4wd5CuioazKSg51IY-1786" value="PROGRAM PLANNING &amp;amp; MANAGEMENT" parent="1" style="rounded=1;whiteSpace=wrap;html=1;fontSize=15;fillColor=#dae8fc;strokeColor=#6c8ebf;" vertex="1">
          <mxGeometry as="geometry" y="115" x="680" height="60" width="140"/>
        </mxCell>
        <mxCell id="T4d4wd5CuioazKSg51IY-1787" value="BUSINESS REQUIREMENTS DEFINITION" parent="1" style="rounded=1;whiteSpace=wrap;html=1;fontSize=15;fillColor=#dae8fc;strokeColor=#6c8ebf;" vertex="1">
          <mxGeometry as="geometry" y="115" x="480" height="60" width="140"/>
        </mxCell>
        <mxCell id="T4d4wd5CuioazKSg51IY-1807" parent="1" source="T4d4wd5CuioazKSg51IY-1792" target="T4d4wd5CuioazKSg51IY-1797" edge="1" style="edgeStyle=orthogonalEdgeStyle;rounded=0;orthogonalLoop=1;jettySize=auto;html=1;entryX=0;entryY=0.25;entryDx=0;entryDy=0;fontSize=15;">
          <mxGeometry as="geometry" relative="1"/>
        </mxCell>
        <mxCell id="1AFJzJq5nVhSdo0ociLi-2" value="" parent="1" source="T4d4wd5CuioazKSg51IY-1792" target="1AFJzJq5nVhSdo0ociLi-1" edge="1" style="edgeStyle=orthogonalEdgeStyle;rounded=0;orthogonalLoop=1;jettySize=auto;html=1;">
          <mxGeometry as="geometry" relative="1"/>
        </mxCell>
        <mxCell id="T4d4wd5CuioazKSg51IY-1792" value="IMPLEMENTATION" parent="1" style="rounded=1;whiteSpace=wrap;html=1;fontSize=15;fillColor=#d5e8d4;strokeColor=#82b366;fontStyle=1" vertex="1">
          <mxGeometry as="geometry" y="330" x="80" height="90" width="310"/>
        </mxCell>
        <mxCell id="1AFJzJq5nVhSdo0ociLi-20" parent="1" source="1AFJzJq5nVhSdo0ociLi-1" target="1AFJzJq5nVhSdo0ociLi-3" edge="1" style="edgeStyle=orthogonalEdgeStyle;rounded=0;orthogonalLoop=1;jettySize=auto;html=1;entryX=0;entryY=0.5;entryDx=0;entryDy=0;">
          <mxGeometry as="geometry" relative="1"/>
        </mxCell>
        <mxCell id="1AFJzJq5nVhSdo0ociLi-1" value="DEPLOYMENT &amp;amp; OPERATIONS" parent="1" style="rounded=1;whiteSpace=wrap;html=1;fontSize=15;fillColor=#f8cecc;strokeColor=#b85450;fontStyle=1" vertex="1">
          <mxGeometry as="geometry" y="540" x="80" height="90" width="310"/>
        </mxCell>
        <mxCell id="T4d4wd5CuioazKSg51IY-1808" parent="1" source="T4d4wd5CuioazKSg51IY-1797" target="T4d4wd5CuioazKSg51IY-1798" edge="1" style="edgeStyle=orthogonalEdgeStyle;rounded=0;orthogonalLoop=1;jettySize=auto;html=1;fontSize=15;">
          <mxGeometry as="geometry" relative="1"/>
        </mxCell>
        <mxCell id="T4d4wd5CuioazKSg51IY-1797" value="DIMENSIONAL DATA MODEL DESIGN" parent="1" style="rounded=1;whiteSpace=wrap;html=1;fillColor=#d5e8d4;fontSize=15;strokeColor=#82b366;" vertex="1">
          <mxGeometry as="geometry" y="250" x="460" height="60" width="120"/>
        </mxCell>
        <mxCell id="T4d4wd5CuioazKSg51IY-1809" parent="1" source="T4d4wd5CuioazKSg51IY-1798" target="T4d4wd5CuioazKSg51IY-1799" edge="1" style="edgeStyle=orthogonalEdgeStyle;rounded=0;orthogonalLoop=1;jettySize=auto;html=1;entryX=0;entryY=0.5;entryDx=0;entryDy=0;fontSize=15;">
          <mxGeometry as="geometry" relative="1"/>
        </mxCell>
        <mxCell id="T4d4wd5CuioazKSg51IY-1798" value="PHYSICAL DATABASE DESIGN" parent="1" style="rounded=1;whiteSpace=wrap;html=1;fillColor=#d5e8d4;fontSize=15;strokeColor=#82b366;" vertex="1">
          <mxGeometry as="geometry" y="250" x="630" height="60" width="120"/>
        </mxCell>
        <mxCell id="T4d4wd5CuioazKSg51IY-1810" parent="1" source="T4d4wd5CuioazKSg51IY-1799" target="T4d4wd5CuioazKSg51IY-1800" edge="1" style="edgeStyle=orthogonalEdgeStyle;rounded=0;orthogonalLoop=1;jettySize=auto;html=1;entryX=1;entryY=0.75;entryDx=0;entryDy=0;fontSize=15;">
          <mxGeometry as="geometry" relative="1">
            <Array as="points">
              <mxPoint y="330" x="886"/>
              <mxPoint y="330" x="540"/>
              <mxPoint y="376" x="540"/>
              <mxPoint y="376" x="580"/>
            </Array>
          </mxGeometry>
        </mxCell>
        <mxCell id="T4d4wd5CuioazKSg51IY-1799" value="PHYSICAL DATABASE IMPLEMENTATION" parent="1" style="rounded=1;whiteSpace=wrap;html=1;fillColor=#d5e8d4;fontSize=15;strokeColor=#82b366;" vertex="1">
          <mxGeometry as="geometry" y="250" x="810" height="60" width="150"/>
        </mxCell>
        <mxCell id="T4d4wd5CuioazKSg51IY-1811" parent="1" source="T4d4wd5CuioazKSg51IY-1800" target="T4d4wd5CuioazKSg51IY-1801" edge="1" style="edgeStyle=orthogonalEdgeStyle;rounded=0;orthogonalLoop=1;jettySize=auto;html=1;fontSize=15;">
          <mxGeometry as="geometry" relative="1"/>
        </mxCell>
        <mxCell id="T4d4wd5CuioazKSg51IY-1800" value="ETL SYSTEM DESIGN" parent="1" style="rounded=1;whiteSpace=wrap;html=1;fillColor=#d5e8d4;fontSize=15;strokeColor=#82b366;" vertex="1">
          <mxGeometry as="geometry" y="350" x="475" height="60" width="120"/>
        </mxCell>
        <mxCell id="T4d4wd5CuioazKSg51IY-1812" parent="1" source="T4d4wd5CuioazKSg51IY-1801" target="T4d4wd5CuioazKSg51IY-1802" edge="1" style="edgeStyle=orthogonalEdgeStyle;rounded=0;orthogonalLoop=1;jettySize=auto;html=1;fontSize=15;">
          <mxGeometry as="geometry" relative="1"/>
        </mxCell>
        <mxCell id="T4d4wd5CuioazKSg51IY-1801" value="ETL SYSTEM DEVELOPMENT" parent="1" style="rounded=1;whiteSpace=wrap;html=1;fillColor=#d5e8d4;fontSize=15;strokeColor=#82b366;" vertex="1">
          <mxGeometry as="geometry" y="350" x="640" height="60" width="120"/>
        </mxCell>
        <mxCell id="T4d4wd5CuioazKSg51IY-1816" parent="1" source="T4d4wd5CuioazKSg51IY-1802" edge="1" style="edgeStyle=orthogonalEdgeStyle;rounded=0;orthogonalLoop=1;jettySize=auto;html=1;entryX=0.5;entryY=0;entryDx=0;entryDy=0;fontSize=15;">
          <mxGeometry as="geometry" relative="1">
            <mxPoint as="targetPoint" y="440" x="885.7142857142858"/>
          </mxGeometry>
        </mxCell>
        <mxCell id="T4d4wd5CuioazKSg51IY-1802" value="BI APPLICATION DESIGN" parent="1" style="rounded=1;whiteSpace=wrap;html=1;fillColor=#d5e8d4;fontSize=15;strokeColor=#82b366;" vertex="1">
          <mxGeometry as="geometry" y="350" x="825" height="60" width="120"/>
        </mxCell>
        <mxCell id="T4d4wd5CuioazKSg51IY-1803" value="BI APPLICATION DEVELOPMENT" parent="1" style="rounded=1;whiteSpace=wrap;html=1;fillColor=#d5e8d4;fontSize=15;strokeColor=#82b366;" vertex="1">
          <mxGeometry as="geometry" y="440" x="825" height="60" width="120"/>
        </mxCell>
        <mxCell id="T4d4wd5CuioazKSg51IY-1813" value="" parent="1" style="rounded=1;whiteSpace=wrap;html=1;fillColor=#BECADB;fontSize=15;" vertex="1">
          <mxGeometry as="geometry" y="1050" x="20" height="60" width="120"/>
        </mxCell>
        <mxCell id="1AFJzJq5nVhSdo0ociLi-5" value="" parent="1" source="1AFJzJq5nVhSdo0ociLi-3" target="1AFJzJq5nVhSdo0ociLi-4" edge="1" style="edgeStyle=orthogonalEdgeStyle;rounded=0;orthogonalLoop=1;jettySize=auto;html=1;">
          <mxGeometry as="geometry" relative="1"/>
        </mxCell>
        <mxCell id="1AFJzJq5nVhSdo0ociLi-3" value="Pre-Deployment Testing" parent="1" style="rounded=1;whiteSpace=wrap;html=1;fillColor=#f8cecc;fontSize=15;strokeColor=#b85450;" vertex="1">
          <mxGeometry as="geometry" y="645" x="460" height="60" width="120"/>
        </mxCell>
        <mxCell id="1AFJzJq5nVhSdo0ociLi-7" value="" parent="1" source="1AFJzJq5nVhSdo0ociLi-4" target="1AFJzJq5nVhSdo0ociLi-6" edge="1" style="edgeStyle=orthogonalEdgeStyle;rounded=0;orthogonalLoop=1;jettySize=auto;html=1;">
          <mxGeometry as="geometry" relative="1"/>
        </mxCell>
        <mxCell id="1AFJzJq5nVhSdo0ociLi-4" value="Data and Process Testing" parent="1" style="rounded=1;whiteSpace=wrap;html=1;fillColor=#f8cecc;fontSize=15;strokeColor=#b85450;" vertex="1">
          <mxGeometry as="geometry" y="645" x="640" height="60" width="120"/>
        </mxCell>
        <mxCell id="1AFJzJq5nVhSdo0ociLi-9" value="" parent="1" source="1AFJzJq5nVhSdo0ociLi-6" target="1AFJzJq5nVhSdo0ociLi-8" edge="1" style="edgeStyle=orthogonalEdgeStyle;rounded=0;orthogonalLoop=1;jettySize=auto;html=1;">
          <mxGeometry as="geometry" relative="1">
            <Array as="points">
              <mxPoint y="730" x="920"/>
              <mxPoint y="730" x="520"/>
            </Array>
          </mxGeometry>
        </mxCell>
        <mxCell id="1AFJzJq5nVhSdo0ociLi-6" value="Performance Tuning" parent="1" style="rounded=1;whiteSpace=wrap;html=1;fillColor=#f8cecc;fontSize=15;strokeColor=#b85450;" vertex="1">
          <mxGeometry as="geometry" y="645" x="820" height="60" width="120"/>
        </mxCell>
        <mxCell id="1AFJzJq5nVhSdo0ociLi-11" value="" parent="1" source="1AFJzJq5nVhSdo0ociLi-8" target="1AFJzJq5nVhSdo0ociLi-10" edge="1" style="edgeStyle=orthogonalEdgeStyle;rounded=0;orthogonalLoop=1;jettySize=auto;html=1;">
          <mxGeometry as="geometry" relative="1"/>
        </mxCell>
        <mxCell id="1AFJzJq5nVhSdo0ociLi-8" value="Other Testing" parent="1" style="rounded=1;whiteSpace=wrap;html=1;fillColor=#f8cecc;fontSize=15;strokeColor=#b85450;" vertex="1">
          <mxGeometry as="geometry" y="780" x="460" height="60" width="120"/>
        </mxCell>
        <mxCell id="1AFJzJq5nVhSdo0ociLi-13" value="" parent="1" source="1AFJzJq5nVhSdo0ociLi-10" target="1AFJzJq5nVhSdo0ociLi-12" edge="1" style="edgeStyle=orthogonalEdgeStyle;rounded=0;orthogonalLoop=1;jettySize=auto;html=1;">
          <mxGeometry as="geometry" relative="1"/>
        </mxCell>
        <mxCell id="1AFJzJq5nVhSdo0ociLi-10" value="System Deployment" parent="1" style="rounded=1;whiteSpace=wrap;html=1;fillColor=#f8cecc;fontSize=15;strokeColor=#b85450;" vertex="1">
          <mxGeometry as="geometry" y="780" x="660" height="60" width="120"/>
        </mxCell>
        <mxCell id="1AFJzJq5nVhSdo0ociLi-17" value="" parent="1" source="1AFJzJq5nVhSdo0ociLi-12" target="1AFJzJq5nVhSdo0ociLi-16" edge="1" style="edgeStyle=orthogonalEdgeStyle;rounded=0;orthogonalLoop=1;jettySize=auto;html=1;">
          <mxGeometry as="geometry" relative="1"/>
        </mxCell>
        <mxCell id="1AFJzJq5nVhSdo0ociLi-12" value="User Facing Deployment" parent="1" style="rounded=1;whiteSpace=wrap;html=1;fillColor=#f8cecc;fontSize=15;strokeColor=#b85450;" vertex="1">
          <mxGeometry as="geometry" y="780" x="860" height="60" width="120"/>
        </mxCell>
        <mxCell id="1AFJzJq5nVhSdo0ociLi-19" value="" parent="1" source="1AFJzJq5nVhSdo0ociLi-16" target="1AFJzJq5nVhSdo0ociLi-18" edge="1" style="edgeStyle=orthogonalEdgeStyle;rounded=0;orthogonalLoop=1;jettySize=auto;html=1;">
          <mxGeometry as="geometry" relative="1"/>
        </mxCell>
        <mxCell id="1AFJzJq5nVhSdo0ociLi-16" value="Back Room Operations" parent="1" style="rounded=1;whiteSpace=wrap;html=1;fillColor=#f8cecc;fontSize=15;strokeColor=#b85450;" vertex="1">
          <mxGeometry as="geometry" y="890" x="860" height="60" width="120"/>
        </mxCell>
        <mxCell id="1AFJzJq5nVhSdo0ociLi-18" value="Front Room Operations" parent="1" style="rounded=1;whiteSpace=wrap;html=1;fillColor=#f8cecc;fontSize=15;strokeColor=#b85450;" vertex="1">
          <mxGeometry as="geometry" y="890" x="660" height="60" width="120"/>
        </mxCell>
      </root>
    </mxGraphModel>
  </diagram>
</mxfile>
